<mxfile host="app.diagrams.net" modified="2023-05-27T11:11:29.247Z" agent="Mozilla/5.0 (Windows NT 10.0; Win64; x64) AppleWebKit/537.36 (KHTML, like Gecko) Chrome/113.0.0.0 Safari/537.36" etag="_0E6oanDUeKhiFcQKaVP" version="21.2.3" type="device">
  <diagram name="Страница 1" id="pv09pEwJdNq7RHV2CEMk">
    <mxGraphModel dx="1915" dy="963" grid="1" gridSize="10" guides="1" tooltips="1" connect="1" arrows="1" fold="1" page="1" pageScale="1" pageWidth="827" pageHeight="1169" math="0" shadow="0">
      <root>
        <mxCell id="0" />
        <mxCell id="1" parent="0" />
        <mxCell id="mBEFDL5O27PUhWbIKYGM-1" value="" style="ellipse;whiteSpace=wrap;html=1;aspect=fixed;fillColor=#000000;" parent="1" vertex="1">
          <mxGeometry x="370" y="40" width="60" height="60" as="geometry" />
        </mxCell>
        <mxCell id="mBEFDL5O27PUhWbIKYGM-2" value="Создание объявления (Выполнить проверку вводимых данных)" style="rounded=1;whiteSpace=wrap;html=1;fillColor=#FFFFFF;" parent="1" vertex="1">
          <mxGeometry x="340" y="180" width="120" height="80" as="geometry" />
        </mxCell>
        <mxCell id="mBEFDL5O27PUhWbIKYGM-3" value="" style="endArrow=classic;html=1;rounded=0;exitX=0.5;exitY=1;exitDx=0;exitDy=0;" parent="1" source="mBEFDL5O27PUhWbIKYGM-1" target="mBEFDL5O27PUhWbIKYGM-2" edge="1">
          <mxGeometry width="50" height="50" relative="1" as="geometry">
            <mxPoint x="390" y="460" as="sourcePoint" />
            <mxPoint x="440" y="410" as="targetPoint" />
          </mxGeometry>
        </mxCell>
        <mxCell id="mBEFDL5O27PUhWbIKYGM-4" value="[Заполнить обязательные данные для задания]" style="text;html=1;strokeColor=none;fillColor=none;align=center;verticalAlign=middle;whiteSpace=wrap;rounded=0;" parent="1" vertex="1">
          <mxGeometry x="414" y="120" width="60" height="30" as="geometry" />
        </mxCell>
        <mxCell id="mBEFDL5O27PUhWbIKYGM-5" value="" style="endArrow=none;html=1;rounded=0;entryX=0;entryY=0.25;entryDx=0;entryDy=0;" parent="1" target="mBEFDL5O27PUhWbIKYGM-2" edge="1">
          <mxGeometry width="50" height="50" relative="1" as="geometry">
            <mxPoint x="290" y="200" as="sourcePoint" />
            <mxPoint x="440" y="370" as="targetPoint" />
          </mxGeometry>
        </mxCell>
        <mxCell id="mBEFDL5O27PUhWbIKYGM-6" value="" style="endArrow=none;html=1;rounded=0;" parent="1" edge="1">
          <mxGeometry width="50" height="50" relative="1" as="geometry">
            <mxPoint x="290" y="240" as="sourcePoint" />
            <mxPoint x="290" y="200" as="targetPoint" />
          </mxGeometry>
        </mxCell>
        <mxCell id="mBEFDL5O27PUhWbIKYGM-7" value="" style="endArrow=classic;html=1;rounded=0;entryX=0;entryY=0.75;entryDx=0;entryDy=0;" parent="1" target="mBEFDL5O27PUhWbIKYGM-2" edge="1">
          <mxGeometry width="50" height="50" relative="1" as="geometry">
            <mxPoint x="290" y="240" as="sourcePoint" />
            <mxPoint x="440" y="370" as="targetPoint" />
          </mxGeometry>
        </mxCell>
        <mxCell id="mBEFDL5O27PUhWbIKYGM-8" value="[Не все данные указаны]" style="text;html=1;strokeColor=none;fillColor=none;align=center;verticalAlign=middle;whiteSpace=wrap;rounded=0;" parent="1" vertex="1">
          <mxGeometry x="220" y="205" width="60" height="30" as="geometry" />
        </mxCell>
        <mxCell id="mBEFDL5O27PUhWbIKYGM-9" value="Ожидание исполнителя" style="rounded=1;whiteSpace=wrap;html=1;fillColor=#FFFFFF;" parent="1" vertex="1">
          <mxGeometry x="340" y="350" width="120" height="80" as="geometry" />
        </mxCell>
        <mxCell id="mBEFDL5O27PUhWbIKYGM-10" value="" style="endArrow=classic;html=1;rounded=0;exitX=0.5;exitY=1;exitDx=0;exitDy=0;entryX=0.5;entryY=0;entryDx=0;entryDy=0;" parent="1" source="mBEFDL5O27PUhWbIKYGM-2" target="mBEFDL5O27PUhWbIKYGM-9" edge="1">
          <mxGeometry width="50" height="50" relative="1" as="geometry">
            <mxPoint x="410" y="110" as="sourcePoint" />
            <mxPoint x="410" y="190" as="targetPoint" />
          </mxGeometry>
        </mxCell>
        <mxCell id="mBEFDL5O27PUhWbIKYGM-11" value="[Объявление проверено администратором]" style="text;html=1;strokeColor=none;fillColor=none;align=center;verticalAlign=middle;whiteSpace=wrap;rounded=0;" parent="1" vertex="1">
          <mxGeometry x="300" y="280" width="86" height="30" as="geometry" />
        </mxCell>
        <mxCell id="mBEFDL5O27PUhWbIKYGM-13" value="" style="endArrow=none;html=1;rounded=0;entryX=0;entryY=0.25;entryDx=0;entryDy=0;" parent="1" target="mBEFDL5O27PUhWbIKYGM-9" edge="1">
          <mxGeometry width="50" height="50" relative="1" as="geometry">
            <mxPoint x="300" y="370" as="sourcePoint" />
            <mxPoint x="350" y="210" as="targetPoint" />
          </mxGeometry>
        </mxCell>
        <mxCell id="mBEFDL5O27PUhWbIKYGM-14" value="" style="endArrow=none;html=1;rounded=0;" parent="1" edge="1">
          <mxGeometry width="50" height="50" relative="1" as="geometry">
            <mxPoint x="300" y="410" as="sourcePoint" />
            <mxPoint x="300" y="370" as="targetPoint" />
          </mxGeometry>
        </mxCell>
        <mxCell id="mBEFDL5O27PUhWbIKYGM-15" value="" style="endArrow=classic;html=1;rounded=0;entryX=0;entryY=0.75;entryDx=0;entryDy=0;" parent="1" target="mBEFDL5O27PUhWbIKYGM-9" edge="1">
          <mxGeometry width="50" height="50" relative="1" as="geometry">
            <mxPoint x="300" y="410" as="sourcePoint" />
            <mxPoint x="350" y="250" as="targetPoint" />
          </mxGeometry>
        </mxCell>
        <mxCell id="mBEFDL5O27PUhWbIKYGM-16" value="[Не найден исполнитель в течение дня]" style="text;html=1;strokeColor=none;fillColor=none;align=center;verticalAlign=middle;whiteSpace=wrap;rounded=0;" parent="1" vertex="1">
          <mxGeometry x="220" y="370" width="70" height="30" as="geometry" />
        </mxCell>
        <mxCell id="mBEFDL5O27PUhWbIKYGM-17" value="Оформление задания" style="rounded=1;whiteSpace=wrap;html=1;fillColor=#FFFFFF;" parent="1" vertex="1">
          <mxGeometry x="610" y="350" width="150" height="80" as="geometry" />
        </mxCell>
        <mxCell id="mBEFDL5O27PUhWbIKYGM-18" value="" style="endArrow=classic;html=1;rounded=0;exitX=1;exitY=0.5;exitDx=0;exitDy=0;entryX=0;entryY=0.5;entryDx=0;entryDy=0;" parent="1" source="mBEFDL5O27PUhWbIKYGM-9" target="mBEFDL5O27PUhWbIKYGM-17" edge="1">
          <mxGeometry width="50" height="50" relative="1" as="geometry">
            <mxPoint x="410" y="270" as="sourcePoint" />
            <mxPoint x="410" y="360" as="targetPoint" />
          </mxGeometry>
        </mxCell>
        <mxCell id="mBEFDL5O27PUhWbIKYGM-19" value="[Исполнитель найден&amp;amp;&amp;amp;Заказчик подтвердил его]" style="text;html=1;strokeColor=none;fillColor=none;align=center;verticalAlign=middle;whiteSpace=wrap;rounded=0;" parent="1" vertex="1">
          <mxGeometry x="460" y="340" width="136" height="30" as="geometry" />
        </mxCell>
        <mxCell id="mBEFDL5O27PUhWbIKYGM-20" value="Начало выполнения задания (Перевести задание в статус &quot;В процессе&quot;)" style="rounded=1;whiteSpace=wrap;html=1;fillColor=#FFFFFF;" parent="1" vertex="1">
          <mxGeometry x="605" y="520" width="160" height="80" as="geometry" />
        </mxCell>
        <mxCell id="mBEFDL5O27PUhWbIKYGM-21" value="" style="endArrow=classic;html=1;rounded=0;exitX=0.5;exitY=1;exitDx=0;exitDy=0;entryX=0.5;entryY=0;entryDx=0;entryDy=0;" parent="1" source="mBEFDL5O27PUhWbIKYGM-17" target="mBEFDL5O27PUhWbIKYGM-20" edge="1">
          <mxGeometry width="50" height="50" relative="1" as="geometry">
            <mxPoint x="410" y="270" as="sourcePoint" />
            <mxPoint x="410" y="360" as="targetPoint" />
          </mxGeometry>
        </mxCell>
        <mxCell id="mBEFDL5O27PUhWbIKYGM-22" value="[Было получено согласие с двух сторон &amp;amp;&amp;amp; определен срок выполнения]" style="text;html=1;strokeColor=none;fillColor=none;align=center;verticalAlign=middle;whiteSpace=wrap;rounded=0;" parent="1" vertex="1">
          <mxGeometry x="691" y="450" width="159" height="30" as="geometry" />
        </mxCell>
        <mxCell id="mBEFDL5O27PUhWbIKYGM-23" value="Окончание выполнения задания (Перевести задание в статус &quot;Выполнено&quot;)" style="rounded=1;whiteSpace=wrap;html=1;fillColor=#FFFFFF;" parent="1" vertex="1">
          <mxGeometry x="325" y="520" width="150" height="80" as="geometry" />
        </mxCell>
        <mxCell id="mBEFDL5O27PUhWbIKYGM-24" value="" style="endArrow=classic;html=1;rounded=0;exitX=0;exitY=0.5;exitDx=0;exitDy=0;entryX=1;entryY=0.5;entryDx=0;entryDy=0;" parent="1" source="mBEFDL5O27PUhWbIKYGM-20" target="mBEFDL5O27PUhWbIKYGM-23" edge="1">
          <mxGeometry width="50" height="50" relative="1" as="geometry">
            <mxPoint x="695" y="440" as="sourcePoint" />
            <mxPoint x="695" y="530" as="targetPoint" />
          </mxGeometry>
        </mxCell>
        <mxCell id="mBEFDL5O27PUhWbIKYGM-27" value="[Задание выполнено &amp;amp;&amp;amp; срок не окончен]" style="text;html=1;strokeColor=none;fillColor=none;align=center;verticalAlign=middle;whiteSpace=wrap;rounded=0;" parent="1" vertex="1">
          <mxGeometry x="474" y="510" width="136" height="30" as="geometry" />
        </mxCell>
        <mxCell id="mBEFDL5O27PUhWbIKYGM-28" value="Перевод задания в статус &quot;Оплачено&quot;" style="rounded=1;whiteSpace=wrap;html=1;fillColor=#FFFFFF;" parent="1" vertex="1">
          <mxGeometry x="324" y="680" width="150" height="80" as="geometry" />
        </mxCell>
        <mxCell id="mBEFDL5O27PUhWbIKYGM-29" value="" style="endArrow=classic;html=1;rounded=0;exitX=0.5;exitY=1;exitDx=0;exitDy=0;entryX=0.5;entryY=0;entryDx=0;entryDy=0;" parent="1" source="mBEFDL5O27PUhWbIKYGM-23" target="mBEFDL5O27PUhWbIKYGM-28" edge="1">
          <mxGeometry width="50" height="50" relative="1" as="geometry">
            <mxPoint x="695" y="440" as="sourcePoint" />
            <mxPoint x="695" y="530" as="targetPoint" />
          </mxGeometry>
        </mxCell>
        <mxCell id="mBEFDL5O27PUhWbIKYGM-30" value="[Исполнитель указал платежный счет]" style="text;html=1;strokeColor=none;fillColor=none;align=center;verticalAlign=middle;whiteSpace=wrap;rounded=0;" parent="1" vertex="1">
          <mxGeometry x="400" y="630" width="159" height="30" as="geometry" />
        </mxCell>
        <mxCell id="mBEFDL5O27PUhWbIKYGM-31" value="Initial" style="text;html=1;strokeColor=none;fillColor=none;align=center;verticalAlign=middle;whiteSpace=wrap;rounded=0;" parent="1" vertex="1">
          <mxGeometry x="430" y="30" width="60" height="30" as="geometry" />
        </mxCell>
        <mxCell id="mBEFDL5O27PUhWbIKYGM-32" value="Удаление объявления" style="rounded=1;whiteSpace=wrap;html=1;fillColor=#FFFFFF;" parent="1" vertex="1">
          <mxGeometry x="677" y="680" width="150" height="80" as="geometry" />
        </mxCell>
        <mxCell id="mBEFDL5O27PUhWbIKYGM-33" value="" style="endArrow=classic;html=1;rounded=0;exitX=1;exitY=0.5;exitDx=0;exitDy=0;entryX=0;entryY=0.5;entryDx=0;entryDy=0;" parent="1" source="mBEFDL5O27PUhWbIKYGM-28" target="mBEFDL5O27PUhWbIKYGM-32" edge="1">
          <mxGeometry width="50" height="50" relative="1" as="geometry">
            <mxPoint x="470" y="400" as="sourcePoint" />
            <mxPoint x="620" y="400" as="targetPoint" />
          </mxGeometry>
        </mxCell>
        <mxCell id="mBEFDL5O27PUhWbIKYGM-34" value="[Восстановление объявления не востребовалось]" style="text;html=1;strokeColor=none;fillColor=none;align=center;verticalAlign=middle;whiteSpace=wrap;rounded=0;" parent="1" vertex="1">
          <mxGeometry x="500" y="680" width="159" height="30" as="geometry" />
        </mxCell>
        <mxCell id="mBEFDL5O27PUhWbIKYGM-35" value="" style="endArrow=none;html=1;rounded=0;entryX=0;entryY=0.25;entryDx=0;entryDy=0;" parent="1" target="mBEFDL5O27PUhWbIKYGM-28" edge="1">
          <mxGeometry width="50" height="50" relative="1" as="geometry">
            <mxPoint x="290" y="700" as="sourcePoint" />
            <mxPoint x="350" y="380" as="targetPoint" />
          </mxGeometry>
        </mxCell>
        <mxCell id="mBEFDL5O27PUhWbIKYGM-36" value="" style="endArrow=none;html=1;rounded=0;" parent="1" edge="1">
          <mxGeometry width="50" height="50" relative="1" as="geometry">
            <mxPoint x="290" y="730" as="sourcePoint" />
            <mxPoint x="290" y="700" as="targetPoint" />
          </mxGeometry>
        </mxCell>
        <mxCell id="mBEFDL5O27PUhWbIKYGM-37" value="" style="endArrow=classic;html=1;rounded=0;" parent="1" edge="1">
          <mxGeometry width="50" height="50" relative="1" as="geometry">
            <mxPoint x="290" y="730" as="sourcePoint" />
            <mxPoint x="320" y="730" as="targetPoint" />
          </mxGeometry>
        </mxCell>
        <mxCell id="mBEFDL5O27PUhWbIKYGM-38" value="[Оплата не совершена || переведено не достаточно средств]" style="text;html=1;strokeColor=none;fillColor=none;align=center;verticalAlign=middle;whiteSpace=wrap;rounded=0;" parent="1" vertex="1">
          <mxGeometry x="140" y="705" width="140" height="30" as="geometry" />
        </mxCell>
        <mxCell id="mBEFDL5O27PUhWbIKYGM-39" value="" style="ellipse;whiteSpace=wrap;html=1;aspect=fixed;fillColor=#000000;" parent="1" vertex="1">
          <mxGeometry x="722" y="830" width="60" height="60" as="geometry" />
        </mxCell>
        <mxCell id="mBEFDL5O27PUhWbIKYGM-40" value="" style="endArrow=classic;html=1;rounded=0;exitX=0.5;exitY=1;exitDx=0;exitDy=0;entryX=0.5;entryY=0;entryDx=0;entryDy=0;" parent="1" source="mBEFDL5O27PUhWbIKYGM-32" target="mBEFDL5O27PUhWbIKYGM-39" edge="1">
          <mxGeometry width="50" height="50" relative="1" as="geometry">
            <mxPoint x="410" y="110" as="sourcePoint" />
            <mxPoint x="410" y="190" as="targetPoint" />
          </mxGeometry>
        </mxCell>
        <mxCell id="mBEFDL5O27PUhWbIKYGM-43" value="End" style="text;html=1;strokeColor=none;fillColor=none;align=center;verticalAlign=middle;whiteSpace=wrap;rounded=0;" parent="1" vertex="1">
          <mxGeometry x="780" y="850" width="60" height="30" as="geometry" />
        </mxCell>
      </root>
    </mxGraphModel>
  </diagram>
</mxfile>
